<svg xmlns="http://www.w3.org/2000/svg" width="1024" height="1024" viewBox="120 300 780 430"><defs><linearGradient id="a" gradientUnits="userSpaceOnUse" x1="520.38" y1="679.927" x2="480.685" y2="335.406"><stop offset="0" stop-color="#FFB504"/><stop offset="1" stop-color="#FF7717"/></linearGradient></defs><path fill="url(#a)" d="M570.477 324.042c14.528-.169 29.299.069 43.841-.033 3.621-.025 19.643-.268 21.901.406-1.379 6.68-2.263 13.385-3.453 20.086l-2.017 13.941c-2.177 13.897-4.586 28.158-6.572 42.06-.103.854-.496 3.623-.506 4.345-2.289 14.216-5.03 29.47-6.989 43.653l-7.058 45.579c-.504 3.233-2.981 18.122-2.985 20.776-1.914 10.058-4.705 27.447-5.901 37.644l-9.975 63.949-6.569 41.07c-.818 5.509-1.765 11.285-2.471 16.786l-99.873.041-35.072-.028c-15.622-.037-28.378.719-43.667-3.443a102 102 0 0 1-6.623-2.579c-16.824-7.205-28.472-20.032-35.23-36.876a63 63 0 0 1-3.273-11.479c-3.904-21.456 4.374-53.36 7.197-75.354 2.28-17.755 5.136-37.265 9.225-54.597 2.374-10.063 10.556-23.41 16.445-31.85 1.94-1.725 8.128-8.855 10.666-11.505.684-.434 4.332-3.701 5.17-4.426 10.523-8.486 19.351-12.96 31.933-17.422 20.701-5.195 38.37-3.783 59.575-3.772l57.65.068c1.899-9.019 3.314-20.997 4.717-30.302zm-66.102 288.994c7.94-.017 16.06.058 23.983-.065 3.479-17.798 6.22-42.302 8.857-60.728 3.239-22.619 8.107-48.801 10.519-71.126l-54.814.043c-9.021-.015-20.063-.335-28.955.042-33.351 3.29-31.66 35.053-36.019 60.43-1.185 6.899-2.278 14.131-3.233 21.014-2.642 19.044-11.647 47.277 16.996 50.091 7.194.707 14.725.323 21.867.321z"/><defs><linearGradient id="b" gradientUnits="userSpaceOnUse" x1="767.924" y1="680.157" x2="739.617" y2="412.879"><stop offset="0" stop-color="#FFB703"/><stop offset="1" stop-color="#FF8A0F"/></linearGradient></defs><path fill="url(#b)" d="M652.736 421.095c20.231 1.061 43.759-.207 64.51.332-2.766 14.413-4.898 29.938-7.122 44.474a4259 4259 0 0 0-7.342 47.547c-2.122 12.634-4.422 26.377-6.104 39.052l-3.038 18.974c-1.684 10.632-4.59 23.74 2.139 33.21 7.918 11.143 27.996 8.345 40.253 8.342l46.633.012 20.644-136.26c2.777-18.014 5.103-37.782 8.253-55.534l41.065.005c7.285.008 16.27-.206 23.424.19l-26.715 171.905-8.266 52.634c-1.222 7.641-3.748 20.993-4.312 28.374l-95.047-.036c-19.535-.022-49.422 1.423-67.66-3.025-7.864-2.526-11.063-3.996-18.172-8.278-18.351-12.538-28.688-30.988-29.837-53.249-.622-12.066 1.761-24.553 3.517-36.495a2604 2604 0 0 1 6.927-45.316z"/><defs><linearGradient id="c" gradientUnits="userSpaceOnUse" x1="304.695" y1="696.068" x2="270.804" y2="327.686"><stop offset="0" stop-color="#FFB304"/><stop offset="1" stop-color="#FF7418"/></linearGradient></defs><path fill="url(#c)" d="m299.893 324.07 73.243-.015 23.646.002c3.576-.01 9.665-.239 13.067.095l.084.594-1.725 1.783-44.76 45.237c-5.942 5.989-16.123 16.926-22.239 22.172a5044 5044 0 0 1-56.368.102c-1.622 9.035-3.339 18.834-4.598 27.961 30.69-.514 62.649-.082 93.42-.053l-5.494 18.491-7.513 25.026c-1.451 4.898-3.307 11.877-5.144 16.457-27.074.512-56.136.307-83.299.128l-5.968 38.563c-.517 3.37-2.652 16.493-2.572 19.234a3572 3572 0 0 0-7.012 44.262 3596 3596 0 0 1-8.274 53.844c-.988 6.403-3.103 23.155-4.618 28.864-15.385 10.262-32.757 19.83-48.424 29.864-6.848 4.386-15.291 8.91-21.675 13.739 1.103-4.838 2.198-11.356 2.521-16.273l.184-.989c3.732-20.794 6.252-41.989 9.589-62.861 8.412-52.627 14.996-105.751 23.887-158.282l-67.261.03c3.704-1.535 7.841-3.447 11.443-5.232 19.79-9.808 41.427-18.054 60.83-28.415.301-5.239 1.958-14.724 2.767-20.116a1440 1440 0 0 1 5.684-35.839c15.831-11.938 34.667-25.966 49.862-38.482 8.394-5.415 17.474-14.045 26.717-19.891"/></svg>